<svg width="48" height="48" viewBox="0 0 48 48" fill="none" xmlns="http://www.w3.org/2000/svg">
<g filter="url(#filter0_d_1899_541)">
<g filter="url(#filter1_b_1899_541)">
<circle r="20" transform="matrix(-1 0 0 1 24 20)" fill="white" fill-opacity="0.05"/>
<circle r="19.5" transform="matrix(-1 0 0 1 24 20)" stroke="white"/>
</g>
<path d="M14.3144 20.3536C14.1192 20.1583 14.1192 19.8417 14.3144 19.6464L17.4964 16.4645C17.6917 16.2692 18.0082 16.2692 18.2035 16.4645C18.3988 16.6597 18.3988 16.9763 18.2035 17.1716L15.3751 20L18.2035 22.8284C18.3988 23.0237 18.3988 23.3403 18.2035 23.5355C18.0082 23.7308 17.6917 23.7308 17.4964 23.5355L14.3144 20.3536ZM34.668 20.5H14.668V19.5H34.668V20.5Z" fill="white"/>
</g>
<defs>
<filter id="filter0_d_1899_541" x="0" y="0" width="48" height="48" filterUnits="userSpaceOnUse" color-interpolation-filters="sRGB">
<feFlood flood-opacity="0" result="BackgroundImageFix"/>
<feColorMatrix in="SourceAlpha" type="matrix" values="0 0 0 0 0 0 0 0 0 0 0 0 0 0 0 0 0 0 127 0" result="hardAlpha"/>
<feOffset dy="4"/>
<feGaussianBlur stdDeviation="2"/>
<feComposite in2="hardAlpha" operator="out"/>
<feColorMatrix type="matrix" values="0 0 0 0 0 0 0 0 0 0 0 0 0 0 0 0 0 0 0.25 0"/>
<feBlend mode="normal" in2="BackgroundImageFix" result="effect1_dropShadow_1899_541"/>
<feBlend mode="normal" in="SourceGraphic" in2="effect1_dropShadow_1899_541" result="shape"/>
</filter>
<filter id="filter1_b_1899_541" x="-1" y="-5" width="50" height="50" filterUnits="userSpaceOnUse" color-interpolation-filters="sRGB">
<feFlood flood-opacity="0" result="BackgroundImageFix"/>
<feGaussianBlur in="BackgroundImage" stdDeviation="2.5"/>
<feComposite in2="SourceAlpha" operator="in" result="effect1_backgroundBlur_1899_541"/>
<feBlend mode="normal" in="SourceGraphic" in2="effect1_backgroundBlur_1899_541" result="shape"/>
</filter>
</defs>
</svg>
